0
SECTION
2
HEADER
9
$ACADVER
1
AC1009
9
$LUNITS
70
2
9
$LUPREC
70
3
0
ENDSEC
0
SECTION
2
TABLES
0
TABLE
2
LAYER
70
4
0
LAYER
2
GEOMETRY
70
0
62
7
6
CONTINUOUS
0
LAYER
2
FLOW
70
0
62
4
6
CONTINUOUS
0
LAYER
2
DIMENSIONS
70
0
62
3
6
CONTINUOUS
0
LAYER
2
NOTES
70
0
62
2
6
CONTINUOUS
0
ENDTAB
0
ENDSEC
0
SECTION
2
ENTITIES
0
LINE
8
GEOMETRY
10
0
20
0
30
0
11
80.0
21
0
31
0
0
LINE
8
GEOMETRY
10
80.0
20
0
30
0
11
80.0
21
50.0
31
0
0
LINE
8
GEOMETRY
10
80.0
20
50.0
30
0
11
0
21
50.0
31
0
0
LINE
8
GEOMETRY
10
0
20
50.0
30
0
11
0
21
0
31
0
0
LINE
8
GEOMETRY
10
80.0
20
0
30
0
11
100.0
21
0
31
0
0
LINE
8
GEOMETRY
10
100.0
20
0
30
0
11
100.0
21
10.0
31
0
0
LINE
8
GEOMETRY
10
100.0
20
10.0
30
0
11
80.0
21
10.0
31
0
0
LINE
8
GEOMETRY
10
80.0
20
10.0
30
0
11
80.0
21
0
31
0
0
TEXT
8
NOTES
10
0
20
63.0
30
0
40
2
1
PARKING-LOT DETENTION - CONCEPTUAL LAYOUT
50
0
0
TEXT
8
NOTES
10
0
20
59.0
30
0
40
1.2
1
UNITS: 1 drawing unit = 1 metre. Import as metres.
50
0
0
TEXT
8
NOTES
10
12.0
20
36.5
30
0
40
1.7
1
PARKING LOT 80 x 50 m = 4000 m2
50
0
0
TEXT
8
NOTES
10
81.0
20
6.0
30
0
40
1.2
1
BASIN
50
0
0
TEXT
8
NOTES
10
81.0
20
3.0
30
0
40
1.2
1
200 m2
50
0
0
LINE
8
DIMENSIONS
10
97.6
20
-1
30
0
11
97.6
21
11.0
31
0
0
TEXT
8
DIMENSIONS
10
97.6
20
11.5
30
0
40
0.8
1
A
50
0
0
TEXT
8
DIMENSIONS
10
97.6
20
-2.4
30
0
40
0.8
1
A
50
0
0
LINE
8
FLOW
10
9.6
20
20.0
30
0
11
80.0
21
5.0
31
0
0
LINE
8
FLOW
10
80.0
20
5.0
30
0
11
78.09364440667478
21
4.690470757766464
31
0
0
LINE
8
FLOW
10
80.0
20
5.0
30
0
11
78.38539099944428
21
6.059734766497941
31
0
0
LINE
8
FLOW
10
33.6
20
16.0
30
0
11
80.0
21
5.0
31
0
0
LINE
8
FLOW
10
80.0
20
5.0
30
0
11
78.08707185318347
21
4.734094179986476
31
0
0
LINE
8
FLOW
10
80.0
20
5.0
30
0
11
78.41001740745857
21
6.096337245292352
31
0
0
LINE
8
FLOW
10
58.4
20
21.5
30
0
11
80.0
21
5.0
31
0
0
LINE
8
FLOW
10
80.0
20
5.0
30
0
11
78.14466393968674
21
5.536402929989439
31
0
0
LINE
8
FLOW
10
80.0
20
5.0
30
0
11
78.99452043370293
21
6.6489423403379035
31
0
0
LINE
8
FLOW
10
100.0
20
5.0
30
0
11
112.0
21
5.0
31
0
0
LINE
8
FLOW
10
112.0
20
5.0
30
0
11
110.2
21
4.3
31
0
0
LINE
8
FLOW
10
112.0
20
5.0
30
0
11
110.2
21
5.7
31
0
0
TEXT
8
NOTES
10
102.0
20
13.0
30
0
40
1
1
DOWNSTREAM POINT
50
0
0
TEXT
8
NOTES
10
60.0
20
-9
30
0
40
1
1
ONE CATCHMENT OUTLET
50
0
0
LINE
8
NOTES
10
80.0
20
5.0
30
0
11
77.0
21
-7
31
0
0
LINE
8
DIMENSIONS
10
0
20
54.0
30
0
11
80.0
21
54.0
31
0
0
LINE
8
DIMENSIONS
10
-0.5
20
53.5
30
0
11
0.5
21
54.5
31
0
0
LINE
8
DIMENSIONS
10
79.5
20
53.5
30
0
11
80.5
21
54.5
31
0
0
TEXT
8
DIMENSIONS
10
37.0
20
55.0
30
0
40
1.2
1
80 m
50
0
0
LINE
8
DIMENSIONS
10
-4
20
0
30
0
11
-4
21
50.0
31
0
0
LINE
8
DIMENSIONS
10
-4.5
20
-0.5
30
0
11
-3.5
21
0.5
31
0
0
LINE
8
DIMENSIONS
10
-4.5
20
49.5
30
0
11
-3.5
21
50.5
31
0
0
TEXT
8
DIMENSIONS
10
-11
20
25.0
30
0
40
1.2
1
50 m
50
0
0
LINE
8
DIMENSIONS
10
80.0
20
-4
30
0
11
100.0
21
-4
31
0
0
LINE
8
DIMENSIONS
10
79.5
20
-4.5
30
0
11
80.5
21
-3.5
31
0
0
LINE
8
DIMENSIONS
10
99.5
20
-4.5
30
0
11
100.5
21
-3.5
31
0
0
TEXT
8
DIMENSIONS
10
88.0
20
-3
30
0
40
1.2
1
20 m
50
0
0
LINE
8
DIMENSIONS
10
103.0
20
0
30
0
11
103.0
21
10.0
31
0
0
LINE
8
DIMENSIONS
10
102.5
20
-0.5
30
0
11
103.5
21
0.5
31
0
0
LINE
8
DIMENSIONS
10
102.5
20
9.5
30
0
11
103.5
21
10.5
31
0
0
TEXT
8
DIMENSIONS
10
104.0
20
7.800000000000001
30
0
40
1.2
1
10 m
50
0
0
LINE
8
GEOMETRY
10
0
20
-25
30
0
11
10.0
21
-25
31
0
0
LINE
8
GEOMETRY
10
10.0
20
-25
30
0
11
10.0
21
-24.25
31
0
0
LINE
8
GEOMETRY
10
10.0
20
-24.25
30
0
11
0
21
-24.25
31
0
0
LINE
8
GEOMETRY
10
0
20
-24.25
30
0
11
0
21
-25
31
0
0
LINE
8
FLOW
10
10.0
20
-25
30
0
11
10.0
21
-24.9
31
0
0
TEXT
8
NOTES
10
0
20
-20
30
0
40
1
1
SECTION A-A - TRUE GEOMETRY, NO VERTICAL EXAGGERATION
50
0
0
TEXT
8
NOTES
10
0
20
-22
30
0
40
1
1
V = A h; A = 200 m2; CAPACITY = 150 m3
50
0
0
LINE
8
DIMENSIONS
10
0
20
-26.5
30
0
11
10.0
21
-26.5
31
0
0
LINE
8
DIMENSIONS
10
-0.5
20
-27.0
30
0
11
0.5
21
-26.0
31
0
0
LINE
8
DIMENSIONS
10
9.5
20
-27.0
30
0
11
10.5
21
-26.0
31
0
0
TEXT
8
DIMENSIONS
10
3.0
20
-28
30
0
40
1.2
1
10 m
50
0
0
LINE
8
DIMENSIONS
10
-0.8
20
-25
30
0
11
-0.8
21
-24.25
31
0
0
LINE
8
DIMENSIONS
10
-1.3
20
-25.5
30
0
11
-0.30000000000000004
21
-24.5
31
0
0
LINE
8
DIMENSIONS
10
-1.3
20
-24.75
30
0
11
-0.30000000000000004
21
-23.75
31
0
0
TEXT
8
DIMENSIONS
10
-8
20
-25
30
0
40
1.2
1
0.75 m depth
50
0
0
TEXT
8
NOTES
10
13.0
20
-25
30
0
40
0.9
1
100 x 100 mm floor opening
50
0
0
LINE
8
NOTES
10
10.0
20
-24.95
30
0
11
12.5
21
-24.6
31
0
0
TEXT
8
NOTES
10
0
20
-32
30
0
40
1
1
CONSTANT-AREA IDEALIZATION; NO SIDE SLOPES OR FREEBOARD DESIGNED
50
0
0
TEXT
8
NOTES
10
0
20
-35
30
0
40
1
1
FLOW ARROWS SCHEMATIC; NO SURVEY, GRADES, PIPES, TAILWATER OR SPILLWAY DESIGN
50
0
0
TEXT
8
NOTES
10
0
20
-38
30
0
40
1
1
ASSISTANT-GENERATED CAD. MANASI'S OWN EDITS HAVE NOT BEEN RECORDED.
50
0
0
ENDSEC
0
EOF
